<?xml version="1.0" encoding="iso-8859-1"?>
<!-- Uploaded to: SVG Repo, www.svgrepo.com, Generator: SVG Repo Mixer Tools -->
<svg height="800px" width="800px" version="1.1" id="Layer_1" xmlns="http://www.w3.org/2000/svg" xmlns:xlink="http://www.w3.org/1999/xlink" 
	 viewBox="0 0 511.983 511.983" xml:space="preserve">
<path style="fill:#5D9CEC;" d="M501.312,357.331H10.673c-5.89,0-10.671-11.232-10.671-5.343v138.651
	c0,5.906,4.781,10.672,10.671,10.672h490.639c5.891,0,10.656-4.766,10.656-10.672V351.988
	C511.969,346.098,507.203,357.331,501.312,357.331z"/>
<g>
	<path style="fill:#656D78;" d="M148.543,234.664c-5.266,0-9.843-3.906-10.562-9.266c-1.188-8.937-10.109-10.843-13.906-11.655
		c-8.094-1.727-16.093-0.859-16.171-0.852c-5.844,0.688-11.141-3.492-11.828-9.343c-0.703-5.852,3.484-11.148,9.344-11.844
		c16.89-1.992,49.857,1.898,53.701,30.882c0.781,5.843-3.328,11.202-9.156,11.976C149.481,234.633,149.012,234.664,148.543,234.664z
		"/>
	<path style="fill:#656D78;" d="M148.575,234.664c-0.469,0-0.938-0.031-1.406-0.094c-5.843-0.766-9.953-6.117-9.187-11.96
		c0.219-1.664,2.516-16.484,16.062-25.726c10.437-7.117,24.077-8.656,40.514-4.578c5.719,1.422,9.203,7.211,7.781,12.93
		c-1.422,5.71-7.203,9.194-12.921,7.78c-7.078-1.766-16.875-2.93-23.343,1.492c-5.703,3.883-6.938,10.804-6.938,10.866
		C158.433,230.75,153.84,234.664,148.575,234.664z"/>
</g>
<g>
	<path style="fill:#4A89DC;" d="M341.319,373.315c-1.641,0-3.266-0.375-4.766-1.125l-16.562-8.281l-16.562,8.281
		c-3.016,1.516-6.547,1.516-9.547,0l-16.562-8.281l-16.562,8.281c-3,1.516-6.531,1.5-9.547,0l-16.562-8.281l-16.562,8.281
		c-3,1.516-6.531,1.516-9.531,0l-16.562-8.281l-16.562,8.281c-3.015,1.516-6.546,1.516-9.546,0l-16.562-8.281l-16.562,8.281
		c-3,1.516-6.531,1.5-9.546,0l-16.562-8.281l-16.562,8.281c-3,1.516-6.531,1.516-9.531,0l-16.562-8.281l-16.562,8.281
		c-2.531,1.266-5.469,1.484-8.14,0.578L7.299,362.112c-5.594-1.875-8.609-7.905-6.75-13.499c1.859-5.593,7.906-8.608,13.483-6.749
		l27.812,9.28l17.39-8.687c3-1.5,6.531-1.5,9.531,0l16.562,8.28l16.562-8.28c3-1.5,6.546-1.5,9.546,0l16.562,8.28l16.562-8.28
		c3-1.5,6.531-1.5,9.531,0l16.562,8.28l16.562-8.28c3.016-1.5,6.546-1.5,9.546,0l16.562,8.28l16.562-8.28c3-1.5,6.531-1.5,9.547,0
		l16.562,8.28l16.562-8.28c2.999-1.5,6.53-1.5,9.53,0l16.562,8.28l16.562-8.28c3.016-1.5,6.547-1.5,9.547,0l16.562,8.28l16.561-8.28
		c2.999-1.5,6.53-1.5,9.546,0l16.562,8.28l16.562-8.28c3-1.5,6.531-1.5,9.53,0l16.562,8.28l16.562-8.28c3-1.5,6.547-1.5,9.547,0
		l17.375,8.687l27.811-9.28c5.594-1.859,11.625,1.156,13.5,6.749c1.859,5.594-1.172,11.624-6.75,13.499l-31.998,10.656
		c-2.688,0.906-5.609,0.688-8.141-0.578l-16.562-8.281l-16.578,8.281c-3,1.516-6.531,1.516-9.53,0l-16.562-8.281l-16.562,8.281
		c-3,1.516-6.531,1.516-9.547,0l-16.562-8.281l-16.561,8.281C344.584,372.94,342.959,373.315,341.319,373.315z"/>
	<path style="fill:#4A89DC;" d="M213.322,426.641c-1.609,0-3.234-0.344-4.766-1.125l-16.562-8.281l-16.562,8.281
		c-3,1.5-6.546,1.5-9.546,0l-16.562-8.281l-16.562,8.281c-3,1.5-6.531,1.5-9.546,0l-16.562-8.281l-16.562,8.281
		c-3,1.5-6.531,1.5-9.531,0l-16.562-8.281l-16.562,8.281c-2.531,1.281-5.469,1.484-8.14,0.594L7.299,415.438
		c-5.594-1.859-8.609-7.905-6.75-13.483c1.859-5.594,7.906-8.624,13.483-6.75l27.812,9.266l17.39-8.703c3-1.5,6.531-1.5,9.531,0
		l16.562,8.281l16.562-8.281c3-1.5,6.546-1.5,9.546,0l16.562,8.281l16.562-8.281c3-1.5,6.531-1.5,9.531,0l16.562,8.281l16.562-8.281
		c3.016-1.5,6.546-1.5,9.546,0l21.327,10.688c5.281,2.625,7.406,9.03,4.781,14.296C220.994,424.485,217.228,426.641,213.322,426.641
		z"/>
	<path style="fill:#4A89DC;" d="M287.992,458.641c-3.906,0-7.672-2.156-9.547-5.891c-2.641-5.266-0.5-11.672,4.766-14.297
		l21.343-10.688c3-1.5,6.531-1.5,9.531,0l16.562,8.281l16.562-8.281c3.016-1.5,6.546-1.5,9.546,0l16.562,8.281l16.562-8.281
		c3-1.5,6.531-1.5,9.547,0l16.562,8.281l16.562-8.281c3-1.5,6.531-1.5,9.531,0l16.562,8.281l16.562-8.281c3-1.5,6.547-1.5,9.547,0
		l21.327,10.688c5.266,2.625,7.406,9.031,4.766,14.297c-2.625,5.266-9.031,7.406-14.297,4.766l-16.562-8.281l-16.577,8.281
		c-3,1.5-6.531,1.5-9.531,0l-16.562-8.281l-16.562,8.281c-3,1.5-6.531,1.5-9.547,0l-16.562-8.281l-16.562,8.281
		c-3,1.5-6.531,1.5-9.531,0l-16.561-8.281l-16.562,8.281c-3.016,1.5-6.547,1.5-9.547,0l-16.562-8.281l-16.562,8.281
		C291.226,458.298,289.601,458.641,287.992,458.641z"/>
</g>
<path style="fill:#FFCE54;" d="M373.316,85.334c0,35.342,28.656,63.997,63.998,63.997c35.344,0,63.998-28.655,63.998-63.997
	c0-35.343-28.654-63.998-63.998-63.998C401.972,21.336,373.316,49.991,373.316,85.334z"/>
<g>
	<path style="fill:#F6BB42;" d="M437.314,159.995c-41.17,0-74.67-33.491-74.67-74.661c0-41.171,33.5-74.661,74.67-74.661
		c41.171,0,74.654,33.49,74.654,74.661C511.969,126.504,478.485,159.995,437.314,159.995z M437.314,31.999
		c-29.404,0-53.326,23.93-53.326,53.335c0,29.404,23.922,53.326,53.326,53.326c29.406,0,53.327-23.922,53.327-53.326
		C490.641,55.929,466.721,31.999,437.314,31.999z"/>
	<path style="fill:#F6BB42;" d="M437.314,277.335c-5.891,0-10.672-4.781-10.672-10.68V181.33c0-5.89,4.781-10.671,10.672-10.671
		s10.672,4.781,10.672,10.671v85.325C447.986,272.554,443.205,277.335,437.314,277.335z"/>
</g>
<path style="fill:#FFCE54;" d="M501.25,206.727c-3.688,0-7.266-1.913-9.25-5.335l-15.921-27.593
	c-2.952-5.102-1.203-11.625,3.906-14.57c5.094-2.945,11.624-1.195,14.562,3.906l15.938,27.593c2.938,5.102,1.188,11.625-3.906,14.57
	C504.89,206.266,503.062,206.727,501.25,206.727z"/>
<path style="fill:#F6BB42;" d="M354.161,48.007c-1.796,0-3.64-0.461-5.312-1.438l-27.671-15.977
	c-5.109-2.945-6.859-9.468-3.906-14.569c2.938-5.101,9.469-6.851,14.562-3.906L359.503,28.1c5.109,2.945,6.859,9.469,3.906,14.57
	C361.441,46.093,357.848,48.007,354.161,48.007z"/>
<path style="fill:#FFCE54;" d="M341.319,95.997h-85.326c-5.891,0-10.672-4.773-10.672-10.663c0-5.891,4.781-10.664,10.672-10.664
	h85.326c5.89,0,10.671,4.773,10.671,10.664C351.99,91.223,347.209,95.997,341.319,95.997z"/>
<path style="fill:#F6BB42;" d="M280.289,186.666c-3.688,0-7.265-1.914-9.249-5.336c-2.938-5.101-1.188-11.624,3.905-14.569
	l73.904-42.671c5.093-2.945,11.623-1.195,14.561,3.906c2.953,5.102,1.203,11.625-3.906,14.57l-73.887,42.67
	C283.93,186.205,282.101,186.666,280.289,186.666z"/>
<path style="fill:#FFCE54;" d="M346.646,253.031c-1.812,0-3.641-0.461-5.327-1.43c-5.094-2.945-6.844-9.469-3.906-14.57
	l42.669-73.896c2.938-5.102,9.469-6.852,14.562-3.906c5.109,2.945,6.859,9.469,3.906,14.57l-42.655,73.896
	C353.911,251.117,350.334,253.031,346.646,253.031z"/>
<path style="fill:#434A54;" d="M127.716,85.334c-30.139,0.789-48.592,14.194-58.748,25.296c-1.516,1.648-2.875,3.289-4.125,4.897
	c-6.828-9.335-15.281-14.202-22.312-16.733c-11.609-4.18-21.671-2.844-22.78-2.68l0.016,0.047
	c-5.031,0.867-8.859,5.234-8.859,10.508c0,5.891,4.781,10.663,10.671,10.663c0.609,0,1.219-0.062,1.797-0.164
	c4.171-0.383,23.562-0.734,30.327,24.281c1.281,4.75,5.593,7.882,10.281,7.882c0.922,0,1.859-0.117,2.797-0.367
	c3.656-0.991,6.344-3.765,7.391-7.124h0.016l-0.031,0.07c0.453-1.398,11.656-34.14,54.123-35.249
	c5.891-0.156,10.531-5.055,10.375-10.938C138.497,89.833,133.606,85.178,127.716,85.334z"/>
</svg>